<svg width="135" height="183" viewBox="0 0 135 183" fill="none" xmlns="http://www.w3.org/2000/svg">
<g opacity="0.8" clip-path="url(#clip0_2234_9590)">
<path d="M41.0204 176.869C42.4925 176.859 43.6037 177.96 43.6133 179.437C43.6228 180.914 42.5259 182.029 41.0537 182.038C39.5816 182.048 38.4704 180.947 38.4609 179.47C38.4513 177.993 39.6709 176.877 41.0204 176.869Z" fill="#FFCF2D"/>
<path d="M40.8783 154.836C42.3504 154.827 43.4616 155.927 43.4712 157.404C43.4807 158.881 42.3838 159.996 40.9117 160.006C39.4395 160.015 38.3283 158.915 38.3188 157.438C38.31 156.084 39.5289 154.845 40.8783 154.836Z" fill="#FFCF2D"/>
<path d="M40.7367 132.928C42.2088 132.919 43.3201 134.019 43.3296 135.496C43.3391 136.973 42.2422 138.088 40.7701 138.098C39.2979 138.107 38.1867 137.007 38.1772 135.529C38.1676 134.052 39.3873 132.937 40.7367 132.928Z" fill="#FFCF2D"/>
<path d="M40.5946 110.896C42.0667 110.886 43.178 111.987 43.1875 113.464C43.197 114.941 42.1001 116.056 40.628 116.065C39.1558 116.075 38.0446 114.974 38.0351 113.497C38.0255 112.02 39.2452 110.905 40.5946 110.896Z" fill="#FFCF2D"/>
<path d="M40.4525 88.8636C41.9246 88.8541 43.0359 89.9548 43.0454 91.4318C43.0549 92.9088 41.958 94.0237 40.4859 94.0332C39.0138 94.0427 37.9025 92.942 37.893 91.465C37.8843 90.1111 39.1031 88.8724 40.4525 88.8636Z" fill="#FFCF2D"/>
<path d="M40.3104 66.8314C41.7825 66.8219 42.8938 67.9226 42.9033 69.3996C42.9128 70.8766 41.8159 71.9915 40.3438 72.001C38.8717 72.0105 37.7604 70.9098 37.7509 69.4328C37.7414 67.9558 38.961 66.8401 40.3104 66.8314Z" fill="#FFCF2D"/>
<path d="M40.1688 44.9232C41.6409 44.9137 42.7522 46.0143 42.7617 47.4914C42.7712 48.9684 41.6743 50.0833 40.2022 50.0928C38.7301 50.1023 37.6188 49.0016 37.6093 47.5246C37.5998 46.0476 38.8194 44.9319 40.1688 44.9232Z" fill="#FFCF2D"/>
<path d="M40.0267 22.891C41.4988 22.8815 42.6101 23.9821 42.6196 25.4591C42.6292 26.9361 41.5322 28.051 40.0601 28.0605C38.588 28.07 37.4767 26.9694 37.4672 25.4924C37.4577 24.0154 38.6773 22.8997 40.0267 22.891Z" fill="#FFCF2D"/>
<path d="M39.8846 0.858788C41.3568 0.849288 42.468 1.9499 42.4775 3.42691C42.4871 4.90391 41.3901 6.0188 39.918 6.0283C38.4459 6.0378 37.3346 4.93716 37.3251 3.46016C37.3164 2.10624 38.5352 0.867496 39.8846 0.858788Z" fill="#FFCF2D"/>
<path d="M59.2992 176.75C60.7713 176.741 61.8826 177.841 61.8921 179.319C61.9016 180.796 60.8047 181.91 59.3326 181.92C57.8604 181.929 56.7492 180.829 56.7397 179.352C56.7301 177.875 57.8271 176.76 59.2992 176.75Z" fill="#FFCF2D"/>
<path d="M59.1566 154.719C60.6287 154.71 61.74 155.81 61.7495 157.287C61.759 158.764 60.6621 159.879 59.19 159.889C57.7179 159.898 56.6066 158.798 56.5971 157.321C56.5884 155.967 57.6845 154.729 59.1566 154.719Z" fill="#FFCF2D"/>
<path d="M59.0155 132.81C60.4876 132.8 61.5989 133.901 61.6084 135.378C61.6179 136.855 60.521 137.97 59.0489 137.979C57.5767 137.989 56.4655 136.888 56.456 135.411C56.4464 133.934 57.5434 132.819 59.0155 132.81Z" fill="#FFCF2D"/>
<path d="M58.8734 110.778C60.3455 110.768 61.4568 111.869 61.4663 113.346C61.4758 114.823 60.3789 115.938 58.9068 115.947C57.4347 115.957 56.3234 114.856 56.3139 113.379C56.3044 111.902 57.4013 110.787 58.8734 110.778Z" fill="#FFCF2D"/>
<path d="M58.7308 88.7455C60.203 88.736 61.3142 89.8366 61.3237 91.3136C61.3333 92.7906 60.2363 93.9055 58.7642 93.915C57.2921 93.9245 56.1808 92.8239 56.1713 91.3469C56.1626 89.9929 57.2587 88.755 58.7308 88.7455Z" fill="#FFCF2D"/>
<path d="M58.5887 66.7133C60.0609 66.7038 61.1721 67.8044 61.1816 69.2814C61.1912 70.7584 60.0942 71.8733 58.6221 71.8828C57.15 71.8923 56.0387 70.7917 56.0292 69.3146C56.0197 67.8376 57.1166 66.7228 58.5887 66.7133Z" fill="#FFCF2D"/>
<path d="M58.4476 44.8051C59.9198 44.7956 61.031 45.8962 61.0405 47.3732C61.0501 48.8502 59.9531 49.9651 58.481 49.9746C57.0089 49.9841 55.8976 48.8834 55.8881 47.4064C55.8786 45.9294 56.9755 44.8146 58.4476 44.8051Z" fill="#FFCF2D"/>
<path d="M58.3051 22.7728C59.7772 22.7633 60.8884 23.864 60.8979 25.341C60.9075 26.818 59.8105 27.9329 58.3384 27.9424C56.8663 27.9519 55.7551 26.8512 55.7455 25.3742C55.736 23.8972 56.8329 22.7823 58.3051 22.7728Z" fill="#FFCF2D"/>
<path d="M58.163 0.740609C59.6351 0.731109 60.7463 1.83173 60.7559 3.30874C60.7654 4.78574 59.6684 5.90063 58.1963 5.91013C56.7242 5.91963 55.613 4.81899 55.6034 3.34199C55.5947 1.98806 56.6908 0.750109 58.163 0.740609Z" fill="#FFCF2D"/>
<path d="M4.58533 177.104C6.05745 177.094 7.16868 178.195 7.17821 179.672C7.18775 181.149 6.09081 182.264 4.61869 182.273C3.14657 182.283 2.03533 181.182 2.0258 179.705C2.01627 178.228 3.11321 177.113 4.58533 177.104Z" fill="#FFCF2D"/>
<path d="M4.44324 155.072C5.91536 155.062 7.02659 156.163 7.03612 157.64C7.04566 159.117 5.94872 160.232 4.4766 160.241C3.00448 160.251 1.89324 159.15 1.88371 157.673C1.87497 156.319 2.97112 155.081 4.44324 155.072Z" fill="#FFCF2D"/>
<path d="M4.30164 133.163C5.77375 133.154 6.88499 134.255 6.89452 135.732C6.90405 137.209 5.80711 138.323 4.335 138.333C2.86288 138.342 1.75085 137.119 1.74211 135.765C1.73258 134.288 2.82952 133.173 4.30164 133.163Z" fill="#FFCF2D"/>
<path d="M4.15955 111.131C5.63166 111.122 6.7429 112.222 6.75243 113.699C6.76196 115.176 5.66502 116.291 4.19291 116.301C2.72079 116.31 1.60876 115.087 1.60002 113.733C1.59128 112.379 2.68743 111.141 4.15955 111.131Z" fill="#FFCF2D"/>
<path d="M4.01746 89.099C5.48957 89.0895 6.60081 90.1901 6.61034 91.6671C6.61987 93.1442 5.52293 94.259 4.05082 94.2685C2.5787 94.278 1.46746 93.1774 1.45793 91.7004C1.44919 90.3465 2.54534 89.1085 4.01746 89.099Z" fill="#FFCF2D"/>
<path d="M3.87537 67.0668C5.34748 67.0573 6.45872 68.1579 6.46825 69.6349C6.47778 71.1119 5.38084 72.2268 3.90873 72.2363C2.43661 72.2458 1.32537 71.1452 1.31584 69.6682C1.30631 68.1912 2.40325 67.0763 3.87537 67.0668Z" fill="#FFCF2D"/>
<path d="M3.73376 45.1576C5.20588 45.1481 6.31712 46.2487 6.32665 47.7257C6.33618 49.2027 5.23924 50.3176 3.76712 50.3271C2.29501 50.3366 1.18377 49.236 1.17424 47.759C1.16471 46.282 2.26165 45.1671 3.73376 45.1576Z" fill="#FFCF2D"/>
<path d="M3.59167 23.1254C5.06379 23.1159 6.17503 24.2165 6.18456 25.6935C6.19409 27.1705 5.09715 28.2854 3.62504 28.2949C2.15292 28.3044 1.04168 27.2038 1.03215 25.7268C1.02262 24.2497 2.11956 23.1349 3.59167 23.1254Z" fill="#FFCF2D"/>
<path d="M3.44959 1.09316C4.9217 1.08366 6.03294 2.18428 6.04247 3.66128C6.052 5.13829 4.95506 6.25317 3.48295 6.26267C2.01083 6.27217 0.89959 5.17154 0.890058 3.69453C0.881321 2.34061 1.97747 1.10266 3.44959 1.09316Z" fill="#FFCF2D"/>
<path d="M22.8641 176.986C24.3363 176.976 25.4475 178.077 25.457 179.554C25.4666 181.031 24.2469 182.147 22.8975 182.155C21.4254 182.165 20.3141 181.064 20.3046 179.587C20.2951 178.11 21.392 176.995 22.8641 176.986Z" fill="#FFCF2D"/>
<path d="M22.722 154.953C24.1942 154.944 25.3054 156.045 25.3149 157.522C25.3245 158.999 24.2275 160.114 22.7554 160.123C21.2833 160.133 20.1721 159.032 20.1625 157.555C20.1538 156.201 21.2499 154.963 22.722 154.953Z" fill="#FFCF2D"/>
<path d="M22.5804 133.045C24.0526 133.036 25.1638 134.136 25.1733 135.613C25.1829 137.09 24.0859 138.205 22.6138 138.215C21.1417 138.224 20.0304 137.124 20.0209 135.647C20.0114 134.17 21.1083 133.055 22.5804 133.045Z" fill="#FFCF2D"/>
<path d="M22.4384 111.013C23.9105 111.004 25.0217 112.104 25.0312 113.581C25.0408 115.058 23.9438 116.173 22.4717 116.183C20.9996 116.192 19.8884 115.091 19.8788 113.614C19.8693 112.137 20.9662 111.023 22.4384 111.013Z" fill="#FFCF2D"/>
<path d="M22.2963 88.9808C23.7684 88.9713 24.8796 90.072 24.8892 91.549C24.8987 93.026 23.8017 94.1409 22.3296 94.1504C20.8575 94.1599 19.7463 93.0592 19.7367 91.5822C19.728 90.2283 20.8241 88.9903 22.2963 88.9808Z" fill="#FFCF2D"/>
<path d="M22.1542 66.9486C23.6263 66.9391 24.7375 68.0397 24.7471 69.5167C24.7566 70.9938 23.6597 72.1086 22.1875 72.1181C20.7154 72.1276 19.6042 71.027 19.5946 69.55C19.5851 68.073 20.6821 66.9581 22.1542 66.9486Z" fill="#FFCF2D"/>
<path d="M22.0126 45.0404C23.4847 45.0309 24.5959 46.1315 24.6055 47.6085C24.615 49.0856 23.5181 50.2004 22.0459 50.2099C20.5738 50.2194 19.4626 49.1188 19.453 47.6418C19.4435 46.1648 20.5405 45.0499 22.0126 45.0404Z" fill="#FFCF2D"/>
<path d="M21.8705 23.0082C23.3426 22.9987 24.4538 24.0993 24.4634 25.5763C24.4729 27.0533 23.376 28.1682 21.9038 28.1777C20.4317 28.1872 19.3205 27.0866 19.311 25.6096C19.3014 24.1326 20.3984 23.0177 21.8705 23.0082Z" fill="#FFCF2D"/>
<path d="M21.7284 0.97596C23.2005 0.96646 24.3117 2.06708 24.3213 3.54409C24.3308 5.0211 23.2339 6.13598 21.7618 6.14548C20.2896 6.15498 19.1784 5.05435 19.1689 3.57734C19.1601 2.22341 20.2563 0.98546 21.7284 0.97596Z" fill="#FFCF2D"/>
<path d="M77.4554 176.633C78.9276 176.624 80.0388 177.724 80.0483 179.201C80.0579 180.678 78.9609 181.793 77.4888 181.803C76.0167 181.812 74.9054 180.712 74.8959 179.235C74.8864 177.758 76.106 176.642 77.4554 176.633Z" fill="#FFCF2D"/>
<path d="M77.3133 154.602C78.7855 154.592 79.8967 155.693 79.9062 157.17C79.9158 158.647 78.8188 159.762 77.3467 159.771C75.8746 159.781 74.7634 158.68 74.7538 157.203C74.7451 155.849 75.9639 154.611 77.3133 154.602Z" fill="#FFCF2D"/>
<path d="M77.1718 132.693C78.6439 132.683 79.7551 133.784 79.7646 135.261C79.7742 136.738 78.6772 137.853 77.2051 137.862C75.733 137.872 74.6218 136.771 74.6122 135.294C74.6027 133.817 75.8223 132.701 77.1718 132.693Z" fill="#FFCF2D"/>
<path d="M77.0297 110.661C78.5018 110.651 79.613 111.752 79.6225 113.229C79.6321 114.706 78.5351 115.821 77.063 115.83C75.5909 115.84 74.4797 114.739 74.4701 113.262C74.4606 111.785 75.6802 110.669 77.0297 110.661Z" fill="#FFCF2D"/>
<path d="M76.8876 88.6283C78.3597 88.6188 79.4709 89.7194 79.4805 91.1964C79.49 92.6734 78.3931 93.7883 76.9209 93.7978C75.4488 93.8073 74.3376 92.7067 74.328 91.2297C74.3193 89.8758 75.5381 88.637 76.8876 88.6283Z" fill="#FFCF2D"/>
<path d="M76.745 66.5961C78.2171 66.5866 79.3283 67.6872 79.3379 69.1642C79.3474 70.6412 78.2505 71.7561 76.7784 71.7656C75.3062 71.7751 74.195 70.6745 74.1855 69.1975C74.1759 67.7205 75.3956 66.6048 76.745 66.5961Z" fill="#FFCF2D"/>
<path d="M76.6039 44.6879C78.076 44.6784 79.1872 45.779 79.1968 47.256C79.2063 48.733 78.1094 49.8479 76.6372 49.8574C75.1651 49.8669 74.0539 48.7663 74.0444 47.2892C74.0348 45.8122 75.2544 44.6966 76.6039 44.6879Z" fill="#FFCF2D"/>
<path d="M76.4618 22.6556C77.9339 22.6461 79.0451 23.7468 79.0547 25.2238C79.0642 26.7008 77.9673 27.8157 76.4952 27.8252C75.023 27.8347 73.9118 26.734 73.9023 25.257C73.8927 23.78 75.1123 22.6643 76.4618 22.6556Z" fill="#FFCF2D"/>
<path d="M76.3192 0.623421C77.7913 0.613921 78.9026 1.71454 78.9121 3.19155C78.9216 4.66856 77.8247 5.78345 76.3526 5.79295C74.8805 5.80245 73.7692 4.70181 73.7597 3.2248C73.7509 1.87087 74.9698 0.63213 76.3192 0.623421Z" fill="#FFCF2D"/>
<path d="M95.7338 176.516C97.2059 176.506 98.3171 177.607 98.3266 179.084C98.3362 180.561 97.2392 181.676 95.7671 181.686C94.295 181.695 93.1838 180.594 93.1742 179.117C93.1647 177.64 94.2616 176.525 95.7338 176.516Z" fill="#FFCF2D"/>
<path d="M95.5917 154.484C97.0638 154.474 98.175 155.575 98.1846 157.052C98.1941 158.529 97.0971 159.644 95.625 159.653C94.1529 159.663 93.0417 158.562 93.0321 157.085C93.0234 155.731 94.1196 154.493 95.5917 154.484Z" fill="#FFCF2D"/>
<path d="M95.4506 132.575C96.9227 132.565 98.0339 133.666 98.0434 135.143C98.053 136.62 96.956 137.735 95.4839 137.744C94.0118 137.754 92.9006 136.653 92.891 135.176C92.8815 133.699 93.9784 132.584 95.4506 132.575Z" fill="#FFCF2D"/>
<path d="M97.9009 113.11C97.8916 111.683 96.7308 110.533 95.308 110.542C93.8852 110.552 92.7392 111.716 92.7485 113.144C92.7577 114.571 93.9185 115.721 95.3413 115.712C96.7641 115.703 97.9101 114.538 97.9009 113.11Z" fill="#FFCF2D"/>
<path d="M95.1659 88.5101C96.638 88.5006 97.7492 89.6013 97.7588 91.0783C97.7683 92.5553 96.6714 93.6702 95.1992 93.6797C93.7271 93.6892 92.6159 92.5885 92.6064 91.1115C92.5976 89.7576 93.6938 88.5196 95.1659 88.5101Z" fill="#FFCF2D"/>
<path d="M95.0238 66.4779C96.4959 66.4684 97.6071 67.569 97.6167 69.046C97.6262 70.5231 96.5293 71.6379 95.0572 71.6474C93.585 71.6569 92.4738 70.5563 92.4643 69.0793C92.4547 67.6023 93.5517 66.4874 95.0238 66.4779Z" fill="#FFCF2D"/>
<path d="M94.8827 44.5697C96.3548 44.5602 97.466 45.6608 97.4756 47.1378C97.4851 48.6148 96.3882 49.7297 94.916 49.7392C93.4439 49.7487 92.3327 48.6481 92.3232 47.1711C92.3136 45.6941 93.4106 44.5792 94.8827 44.5697Z" fill="#FFCF2D"/>
<path d="M97.333 25.1056C97.3238 23.6781 96.1629 22.5283 94.7401 22.5375C93.3173 22.5466 92.1714 23.7113 92.1806 25.1389C92.1898 26.5664 93.3507 27.7162 94.7735 27.707C96.1963 27.6978 97.3422 26.5331 97.333 25.1056Z" fill="#FFCF2D"/>
<path d="M94.598 0.505257C96.0701 0.495757 97.1814 1.59638 97.1909 3.07339C97.2004 4.55039 96.1035 5.66528 94.6314 5.67478C93.1593 5.68428 92.048 4.58364 92.0385 3.10663C92.0298 1.75271 93.1259 0.514757 94.598 0.505257Z" fill="#FFCF2D"/>
<path d="M114.013 176.398C115.485 176.388 116.596 177.489 116.606 178.966C116.615 180.443 115.519 181.558 114.046 181.567C112.574 181.577 111.463 180.476 111.454 178.999C111.444 177.522 112.541 176.407 114.013 176.398Z" fill="#FFCF2D"/>
<path d="M113.87 154.366C115.343 154.356 116.454 155.457 116.463 156.934C116.473 158.411 115.376 159.526 113.904 159.535C112.432 159.545 111.32 158.444 111.311 156.967C111.302 155.613 112.398 154.375 113.87 154.366Z" fill="#FFCF2D"/>
<path d="M113.729 132.456C115.201 132.447 116.313 133.548 116.322 135.025C116.332 136.502 115.235 137.616 113.763 137.626C112.291 137.635 111.179 136.535 111.17 135.058C111.16 133.581 112.257 132.466 113.729 132.456Z" fill="#FFCF2D"/>
<path d="M113.587 110.425C115.059 110.416 116.171 111.516 116.18 112.993C116.19 114.47 115.093 115.585 113.621 115.595C112.149 115.604 111.037 114.504 111.028 113.027C111.018 111.55 112.115 110.435 113.587 110.425Z" fill="#FFCF2D"/>
<path d="M113.445 88.3929C114.917 88.3834 116.028 89.4841 116.038 90.9611C116.047 92.4381 114.95 93.553 113.478 93.5625C112.006 93.572 110.895 92.4713 110.885 90.9943C110.876 89.6404 111.973 88.4024 113.445 88.3929Z" fill="#FFCF2D"/>
<path d="M113.303 66.3607C114.775 66.3512 115.886 67.4519 115.896 68.9289C115.905 70.4059 114.808 71.5208 113.336 71.5303C111.864 71.5397 110.753 70.4391 110.743 68.9621C110.734 67.4851 111.831 66.3702 113.303 66.3607Z" fill="#FFCF2D"/>
<path d="M113.162 44.4515C114.634 44.442 115.745 45.5427 115.754 47.0197C115.764 48.4967 114.667 49.6116 113.195 49.6211C111.723 49.6306 110.612 48.5299 110.602 47.0529C110.592 45.5759 111.689 44.461 113.162 44.4515Z" fill="#FFCF2D"/>
<path d="M113.019 22.4193C114.492 22.4098 115.603 23.5104 115.612 24.9875C115.622 26.4645 114.525 27.5793 113.053 27.5888C111.581 27.5983 110.469 26.4977 110.46 25.0207C110.45 23.5437 111.547 22.4288 113.019 22.4193Z" fill="#FFCF2D"/>
<path d="M112.877 0.387093C114.349 0.377593 115.46 1.47821 115.47 2.95522C115.479 4.43223 114.382 5.54712 112.91 5.55662C111.438 5.56612 110.327 4.46548 110.317 2.98847C110.309 1.63455 111.405 0.396593 112.877 0.387093Z" fill="#FFCF2D"/>
<path d="M132.169 176.281C133.641 176.271 134.752 177.372 134.762 178.849C134.771 180.326 133.674 181.441 132.202 181.45C130.73 181.46 129.619 180.359 129.609 178.882C129.6 177.405 130.819 176.289 132.169 176.281Z" fill="#FFCF2D"/>
<path d="M132.027 154.248C133.499 154.239 134.61 155.34 134.62 156.817C134.629 158.294 133.532 159.408 132.06 159.418C130.588 159.427 129.477 158.327 129.467 156.85C129.458 155.496 130.677 154.257 132.027 154.248Z" fill="#FFCF2D"/>
<path d="M131.885 132.34C133.357 132.331 134.468 133.431 134.478 134.908C134.488 136.385 133.391 137.5 131.918 137.51C130.446 137.519 129.335 136.419 129.326 134.942C129.316 133.465 130.536 132.349 131.885 132.34Z" fill="#FFCF2D"/>
<path d="M131.743 110.308C133.215 110.298 134.326 111.399 134.336 112.876C134.345 114.353 133.249 115.468 131.776 115.478C130.304 115.487 129.193 114.386 129.184 112.909C129.174 111.432 130.394 110.317 131.743 110.308Z" fill="#FFCF2D"/>
<path d="M131.601 88.2758C133.073 88.2663 134.184 89.3669 134.194 90.8439C134.203 92.3209 133.106 93.4358 131.634 93.4453C130.162 93.4548 129.051 92.3542 129.041 90.8772C129.033 89.5232 130.252 88.2845 131.601 88.2758Z" fill="#FFCF2D"/>
<path d="M131.459 66.2435C132.931 66.234 134.042 67.3347 134.052 68.8117C134.061 70.2887 132.964 71.4036 131.492 71.4131C130.02 71.4226 128.909 70.3219 128.899 68.8449C128.89 67.3679 130.109 66.2522 131.459 66.2435Z" fill="#FFCF2D"/>
<path d="M131.317 44.3343C132.789 44.3248 133.901 45.4255 133.91 46.9025C133.92 48.3795 132.823 49.4944 131.351 49.5039C129.878 49.5134 128.767 48.4127 128.758 46.9357C128.748 45.4587 129.968 44.3431 131.317 44.3343Z" fill="#FFCF2D"/>
<path d="M131.175 22.3021C132.647 22.2926 133.759 23.3933 133.768 24.8703C133.778 26.3473 132.681 27.4622 131.209 27.4717C129.736 27.4812 128.625 26.3805 128.616 24.9035C128.606 23.4265 129.826 22.3108 131.175 22.3021Z" fill="#FFCF2D"/>
<path d="M131.033 0.269906C132.505 0.260406 133.616 1.36103 133.626 2.83803C133.636 4.31504 132.539 5.42993 131.066 5.43943C129.594 5.44893 128.483 4.34829 128.474 2.87128C128.465 1.51736 129.684 0.278614 131.033 0.269906Z" fill="#FFCF2D"/>
</g>
<defs>
<clipPath id="clip0_2234_9590">
<rect width="181.184" height="132.739" fill="white" transform="translate(2.04248 182.29) rotate(-90.3697)"/>
</clipPath>
</defs>
</svg>
